<?xml version="1.0" encoding="UTF-8"?>
<svg id="Layer_1" data-name="Layer 1" xmlns="http://www.w3.org/2000/svg" viewBox="0 0 16 20">
  <defs>
    <style>
      .cls-1 {
        fill: #304674;
      }
    </style>
  </defs>
  <path class="cls-1" d="M15.99,7.88c-.05-.46-.41-.82-.87-.87h-.12s-4-.01-4-.01h-.16c-.98-.08-1.76-.87-1.83-1.85v-.15s-.01-4-.01-4v-.12c-.06-.46-.42-.82-.88-.87h-.12s-5.18-.01-5.18-.01C1.53.08.47.97.12,2.16c.06.04.11.08.16.13l4.29,4.3v-1.59c0-.55.45-1,1-1s1,.45,1,1v4c0,.14-.03.26-.08.38-.04.12-.12.23-.21.33-.1.09-.21.17-.33.21-.12.05-.24.08-.38.08H1.57c-.55,0-1-.45-1-1s.45-1,1-1h1.59L0,4.85v12.33c.1,1.58,1.41,2.82,3,2.82h10.18c.55-.04,1.05-.22,1.48-.5l-4.09-4.09v1.59c0,.55-.45,1-1,1s-1-.45-1-1v-4c0-.14.03-.27.07-.38.05-.12.13-.23.22-.33.1-.09.21-.17.33-.22.11-.04.24-.07.38-.07h4c.55,0,1,.45,1,1s-.45,1-1,1h-1.59l3.89,3.88c.08-.28.13-.57.13-.88V7.88ZM11,1v4h4L11,1Z"/>
</svg>